<svg width="18" height="25" viewBox="0 0 18 25" fill="none" xmlns="http://www.w3.org/2000/svg">
<path d="M10.1667 1.50016C10.1667 0.855831 9.64432 0.333496 8.99999 0.333496C8.35566 0.333496 7.83332 0.855831 7.83332 1.50016V3.25016C7.83332 3.28252 7.83464 3.31457 7.83722 3.34626C4.52464 3.89986 1.99999 6.77903 1.99999 10.2489V14.9168C1.99999 15.5004 1.52153 16.5124 0.997925 17.4451C0.261149 18.7576 0.396083 20.34 1.80271 20.8755C3.21743 21.4142 5.48045 21.9168 8.99999 21.9168C12.5195 21.9168 14.7825 21.4142 16.1973 20.8755C17.6039 20.34 17.7388 18.7576 17.0021 17.4451C16.4784 16.5124 16 15.5004 16 14.9168V10.2494C16 6.77958 13.4753 3.89997 10.1628 3.34627C10.1653 3.31458 10.1667 3.28252 10.1667 3.25016V1.50016Z" fill="#667185"/>
<path d="M5.40678 22.8788C5.45032 22.9168 5.50291 22.9612 5.56417 23.0102C5.7395 23.1505 5.99001 23.3323 6.3066 23.5132C6.93492 23.8722 7.86393 24.2502 9.00001 24.2502C10.1361 24.2502 11.0651 23.8722 11.6934 23.5132C12.01 23.3323 12.2605 23.1505 12.4358 23.0102C12.4971 22.9612 12.5497 22.9168 12.5932 22.8788C11.5732 23.0059 10.3837 23.0835 9.00001 23.0835C7.61632 23.0835 6.42685 23.0059 5.40678 22.8788Z" fill="#667185"/>
</svg>
