<svg width="18" height="18" viewBox="0 0 18 18" fill="none" xmlns="http://www.w3.org/2000/svg">
<path fill-rule="evenodd" clip-rule="evenodd" d="M3.4009 0.666748C1.89087 0.666748 0.666748 1.89087 0.666748 3.4009C0.666748 3.96187 0.8393 4.50927 1.161 4.96884L6.1988 12.1657C6.3949 12.4458 6.50008 12.7795 6.50008 13.1215V14.9641C6.50008 16.6721 8.29755 17.783 9.82525 17.0192C10.8517 16.506 11.5001 15.4569 11.5001 14.3093V13.1215C11.5001 12.7795 11.6053 12.4458 11.8014 12.1657L16.8392 4.96883C17.1609 4.50927 17.3334 3.96187 17.3334 3.4009C17.3334 1.89087 16.1093 0.666748 14.5993 0.666748H3.4009ZM9.83342 14.3093C9.83342 14.8256 9.5417 15.2976 9.0799 15.5285C8.66037 15.7382 8.16675 15.4332 8.16675 14.9641V13.1215C8.16675 12.4376 7.95638 11.7702 7.56419 11.2099L2.52638 4.01306C2.40078 3.83364 2.33341 3.61992 2.33341 3.4009C2.33341 2.81134 2.81134 2.33341 3.4009 2.33341H14.5993C15.1888 2.33341 15.6667 2.81134 15.6667 3.4009C15.6667 3.61992 15.5994 3.83364 15.4738 4.01306L10.436 11.2099C10.0438 11.7702 9.83342 12.4376 9.83342 13.1215V14.3093Z" fill="#00459A"/>
</svg>
