<svg width="23" height="23" viewBox="0 0 23 23" fill="none" xmlns="http://www.w3.org/2000/svg">
<path d="M10.8219 15.7787H12.6272V10.3628H10.8219V15.7787ZM11.7245 8.55751C11.9803 8.55751 12.1948 8.47086 12.3681 8.29755C12.5414 8.12425 12.6278 7.91002 12.6272 7.65487C12.6272 7.39912 12.5405 7.1846 12.3672 7.01129C12.1939 6.83798 11.9797 6.75163 11.7245 6.75223C11.4688 6.75223 11.2543 6.83888 11.081 7.01219C10.9077 7.1855 10.8213 7.39972 10.8219 7.65487C10.8219 7.91062 10.9086 8.12515 11.0819 8.29846C11.2552 8.47176 11.4694 8.55812 11.7245 8.55751ZM11.7245 20.2919C10.4759 20.2919 9.30246 20.0548 8.20424 19.5806C7.10603 19.1064 6.15073 18.4634 5.33835 17.6516C4.52597 16.8393 3.88299 15.884 3.4094 14.7858C2.93582 13.6875 2.69872 12.5141 2.69812 11.2654C2.69812 10.0168 2.93521 8.84335 3.4094 7.74514C3.88359 6.64692 4.52657 5.69162 5.33835 4.87924C6.15073 4.06687 7.10603 3.42388 8.20424 2.9503C9.30246 2.47671 10.4759 2.23962 11.7245 2.23901C12.9732 2.23901 14.1466 2.47611 15.2449 2.9503C16.3431 3.42448 17.2984 4.06747 18.1107 4.87924C18.9231 5.69162 19.5664 6.64692 20.0406 7.74514C20.5148 8.84335 20.7516 10.0168 20.751 11.2654C20.751 12.5141 20.5139 13.6875 20.0397 14.7858C19.5655 15.884 18.9225 16.8393 18.1107 17.6516C17.2984 18.464 16.3431 19.1073 15.2449 19.5815C14.1466 20.0557 12.9732 20.2925 11.7245 20.2919ZM11.7245 18.4866C13.7405 18.4866 15.448 17.787 16.847 16.3879C18.2461 14.9888 18.9457 13.2813 18.9457 11.2654C18.9457 9.24954 18.2461 7.54204 16.847 6.14294C15.448 4.74385 13.7405 4.0443 11.7245 4.0443C9.70865 4.0443 8.00115 4.74385 6.60205 6.14294C5.20295 7.54204 4.50341 9.24954 4.50341 11.2654C4.50341 13.2813 5.20295 14.9888 6.60205 16.3879C8.00115 17.787 9.70865 18.4866 11.7245 18.4866Z" fill="#001733"/>
</svg>
